<mxfile host="app.diagrams.net" modified="2023-02-05T13:22:43.686Z" agent="5.0 (Windows NT 10.0; Win64; x64) AppleWebKit/537.36 (KHTML, like Gecko) Chrome/109.0.0.0 Safari/537.36 Edg/109.0.1518.78" etag="xSyeT-ePJpGLV8iLZhKE" version="20.8.13" type="github">
  <diagram name="第 1 页" id="BOLuX9ZyXxqOdYCUEiga">
    <mxGraphModel dx="1434" dy="788" grid="1" gridSize="10" guides="1" tooltips="1" connect="1" arrows="1" fold="1" page="1" pageScale="1" pageWidth="827" pageHeight="1169" math="0" shadow="0">
      <root>
        <mxCell id="0" />
        <mxCell id="1" parent="0" />
        <mxCell id="W2gXTpwqCUoPqCOYdxZJ-1" value="" style="swimlane;startSize=0;fontFamily=Verdana;fontSize=13;dashed=1;fillColor=#dae8fc;strokeColor=#6c8ebf;movable=1;resizable=1;rotatable=1;deletable=1;editable=1;connectable=1;" vertex="1" parent="1">
          <mxGeometry x="39" y="50" width="750" height="240" as="geometry" />
        </mxCell>
        <mxCell id="W2gXTpwqCUoPqCOYdxZJ-2" value="优化前" style="rounded=1;whiteSpace=wrap;html=1;dashed=1;fontFamily=Verdana;fontSize=16;fillColor=#dae8fc;strokeColor=#6c8ebf;" vertex="1" parent="W2gXTpwqCUoPqCOYdxZJ-1">
          <mxGeometry width="100" height="30" as="geometry" />
        </mxCell>
        <mxCell id="W2gXTpwqCUoPqCOYdxZJ-12" value="key0" style="rounded=0;whiteSpace=wrap;html=1;" vertex="1" parent="W2gXTpwqCUoPqCOYdxZJ-1">
          <mxGeometry y="50" width="100" height="40" as="geometry" />
        </mxCell>
        <mxCell id="W2gXTpwqCUoPqCOYdxZJ-13" value="key1" style="rounded=0;whiteSpace=wrap;html=1;" vertex="1" parent="W2gXTpwqCUoPqCOYdxZJ-1">
          <mxGeometry y="90" width="100" height="40" as="geometry" />
        </mxCell>
        <mxCell id="W2gXTpwqCUoPqCOYdxZJ-14" value="...." style="rounded=0;whiteSpace=wrap;html=1;" vertex="1" parent="W2gXTpwqCUoPqCOYdxZJ-1">
          <mxGeometry y="130" width="100" height="40" as="geometry" />
        </mxCell>
        <mxCell id="W2gXTpwqCUoPqCOYdxZJ-15" value="key99" style="rounded=0;whiteSpace=wrap;html=1;" vertex="1" parent="W2gXTpwqCUoPqCOYdxZJ-1">
          <mxGeometry y="170" width="100" height="40" as="geometry" />
        </mxCell>
        <mxCell id="W2gXTpwqCUoPqCOYdxZJ-17" value="uid1" style="rounded=0;whiteSpace=wrap;html=1;" vertex="1" parent="W2gXTpwqCUoPqCOYdxZJ-1">
          <mxGeometry x="171" y="50" width="100" height="40" as="geometry" />
        </mxCell>
        <mxCell id="W2gXTpwqCUoPqCOYdxZJ-18" value="uid2" style="rounded=0;whiteSpace=wrap;html=1;" vertex="1" parent="W2gXTpwqCUoPqCOYdxZJ-1">
          <mxGeometry x="271" y="50" width="100" height="40" as="geometry" />
        </mxCell>
        <mxCell id="W2gXTpwqCUoPqCOYdxZJ-27" value="..." style="rounded=0;whiteSpace=wrap;html=1;" vertex="1" parent="W2gXTpwqCUoPqCOYdxZJ-1">
          <mxGeometry x="371" y="50" width="100" height="40" as="geometry" />
        </mxCell>
        <mxCell id="W2gXTpwqCUoPqCOYdxZJ-28" value="uid100001" style="rounded=0;whiteSpace=wrap;html=1;" vertex="1" parent="W2gXTpwqCUoPqCOYdxZJ-1">
          <mxGeometry x="171" y="90" width="100" height="40" as="geometry" />
        </mxCell>
        <mxCell id="W2gXTpwqCUoPqCOYdxZJ-29" value="uid100002" style="rounded=0;whiteSpace=wrap;html=1;" vertex="1" parent="W2gXTpwqCUoPqCOYdxZJ-1">
          <mxGeometry x="271" y="90" width="100" height="40" as="geometry" />
        </mxCell>
        <mxCell id="W2gXTpwqCUoPqCOYdxZJ-30" value="..." style="rounded=0;whiteSpace=wrap;html=1;" vertex="1" parent="W2gXTpwqCUoPqCOYdxZJ-1">
          <mxGeometry x="371" y="90" width="100" height="40" as="geometry" />
        </mxCell>
        <mxCell id="W2gXTpwqCUoPqCOYdxZJ-31" value="..." style="rounded=0;whiteSpace=wrap;html=1;" vertex="1" parent="W2gXTpwqCUoPqCOYdxZJ-1">
          <mxGeometry x="171" y="130" width="100" height="40" as="geometry" />
        </mxCell>
        <mxCell id="W2gXTpwqCUoPqCOYdxZJ-32" value="..." style="rounded=0;whiteSpace=wrap;html=1;" vertex="1" parent="W2gXTpwqCUoPqCOYdxZJ-1">
          <mxGeometry x="271" y="130" width="100" height="40" as="geometry" />
        </mxCell>
        <mxCell id="W2gXTpwqCUoPqCOYdxZJ-33" value="..." style="rounded=0;whiteSpace=wrap;html=1;" vertex="1" parent="W2gXTpwqCUoPqCOYdxZJ-1">
          <mxGeometry x="371" y="130" width="100" height="40" as="geometry" />
        </mxCell>
        <mxCell id="W2gXTpwqCUoPqCOYdxZJ-34" value="uid9900001" style="rounded=0;whiteSpace=wrap;html=1;" vertex="1" parent="W2gXTpwqCUoPqCOYdxZJ-1">
          <mxGeometry x="171" y="170" width="100" height="40" as="geometry" />
        </mxCell>
        <mxCell id="W2gXTpwqCUoPqCOYdxZJ-35" value="uid9900002" style="rounded=0;whiteSpace=wrap;html=1;" vertex="1" parent="W2gXTpwqCUoPqCOYdxZJ-1">
          <mxGeometry x="271" y="170" width="100" height="40" as="geometry" />
        </mxCell>
        <mxCell id="W2gXTpwqCUoPqCOYdxZJ-36" value="..." style="rounded=0;whiteSpace=wrap;html=1;" vertex="1" parent="W2gXTpwqCUoPqCOYdxZJ-1">
          <mxGeometry x="371" y="170" width="100" height="40" as="geometry" />
        </mxCell>
        <mxCell id="W2gXTpwqCUoPqCOYdxZJ-39" value="" style="endArrow=classic;html=1;rounded=0;exitX=1;exitY=0.5;exitDx=0;exitDy=0;entryX=0;entryY=0.5;entryDx=0;entryDy=0;" edge="1" parent="W2gXTpwqCUoPqCOYdxZJ-1" source="W2gXTpwqCUoPqCOYdxZJ-14" target="W2gXTpwqCUoPqCOYdxZJ-31">
          <mxGeometry width="50" height="50" relative="1" as="geometry">
            <mxPoint x="351" y="280" as="sourcePoint" />
            <mxPoint x="401" y="230" as="targetPoint" />
          </mxGeometry>
        </mxCell>
        <mxCell id="W2gXTpwqCUoPqCOYdxZJ-40" value="" style="endArrow=classic;html=1;rounded=0;exitX=1;exitY=0.5;exitDx=0;exitDy=0;" edge="1" parent="W2gXTpwqCUoPqCOYdxZJ-1" source="W2gXTpwqCUoPqCOYdxZJ-15" target="W2gXTpwqCUoPqCOYdxZJ-34">
          <mxGeometry width="50" height="50" relative="1" as="geometry">
            <mxPoint x="351" y="280" as="sourcePoint" />
            <mxPoint x="401" y="230" as="targetPoint" />
          </mxGeometry>
        </mxCell>
        <mxCell id="W2gXTpwqCUoPqCOYdxZJ-41" value="" style="endArrow=classic;html=1;rounded=0;exitX=1;exitY=0.5;exitDx=0;exitDy=0;entryX=0;entryY=0.5;entryDx=0;entryDy=0;" edge="1" parent="W2gXTpwqCUoPqCOYdxZJ-1" source="W2gXTpwqCUoPqCOYdxZJ-12" target="W2gXTpwqCUoPqCOYdxZJ-17">
          <mxGeometry width="50" height="50" relative="1" as="geometry">
            <mxPoint x="351" y="280" as="sourcePoint" />
            <mxPoint x="401" y="230" as="targetPoint" />
          </mxGeometry>
        </mxCell>
        <mxCell id="W2gXTpwqCUoPqCOYdxZJ-42" value="" style="endArrow=classic;html=1;rounded=0;exitX=1;exitY=0.5;exitDx=0;exitDy=0;entryX=0;entryY=0.5;entryDx=0;entryDy=0;" edge="1" parent="W2gXTpwqCUoPqCOYdxZJ-1" source="W2gXTpwqCUoPqCOYdxZJ-13" target="W2gXTpwqCUoPqCOYdxZJ-28">
          <mxGeometry width="50" height="50" relative="1" as="geometry">
            <mxPoint x="351" y="280" as="sourcePoint" />
            <mxPoint x="401" y="230" as="targetPoint" />
          </mxGeometry>
        </mxCell>
        <mxCell id="W2gXTpwqCUoPqCOYdxZJ-43" value="分成100个set存储" style="text;html=1;strokeColor=none;fillColor=none;align=center;verticalAlign=middle;whiteSpace=wrap;rounded=0;fontSize=15;" vertex="1" parent="W2gXTpwqCUoPqCOYdxZJ-1">
          <mxGeometry x="511" y="50" width="139" height="30" as="geometry" />
        </mxCell>
        <mxCell id="W2gXTpwqCUoPqCOYdxZJ-45" value="当数量为1000w，单个set长度10w" style="text;html=1;strokeColor=none;fillColor=none;align=center;verticalAlign=middle;whiteSpace=wrap;rounded=0;fontSize=15;" vertex="1" parent="W2gXTpwqCUoPqCOYdxZJ-1">
          <mxGeometry x="518" y="90" width="232" height="40" as="geometry" />
        </mxCell>
        <mxCell id="W2gXTpwqCUoPqCOYdxZJ-46" value="占用内存 137MB" style="text;html=1;strokeColor=none;fillColor=none;align=center;verticalAlign=middle;whiteSpace=wrap;rounded=0;fontSize=15;" vertex="1" parent="W2gXTpwqCUoPqCOYdxZJ-1">
          <mxGeometry x="507" y="140" width="139" height="40" as="geometry" />
        </mxCell>
      </root>
    </mxGraphModel>
  </diagram>
</mxfile>
